<svg width="119" height="193" viewBox="0 0 119 193" fill="none" xmlns="http://www.w3.org/2000/svg">
<g clip-path="url(#clip0_2_117)">
<path d="M58.0404 101.712C67.4666 101.712 75.1081 94.0729 75.1081 84.6491C75.1081 75.2254 67.4666 67.586 58.0404 67.586C48.6141 67.586 40.9726 75.2254 40.9726 84.6491C40.9726 94.0729 48.6141 101.712 58.0404 101.712Z" fill="#0C3A30"/>
<path d="M16.5299 126.169C16.1683 125.996 15.86 125.728 15.6374 125.395C15.4147 125.061 15.2859 124.674 15.2644 124.274L15.0161 119.575C14.9855 118.984 15.1906 118.405 15.5865 117.965C15.9824 117.525 16.5366 117.26 17.1276 117.228L56.3032 115.159C56.8942 115.129 57.4733 115.334 57.9133 115.73C58.3533 116.125 58.6183 116.679 58.6502 117.27L58.8985 121.969C58.9291 122.56 58.724 123.139 58.3281 123.579C57.9323 124.019 57.3781 124.284 56.7871 124.316L17.6115 126.385C17.2385 126.405 16.8665 126.331 16.5299 126.169Z" fill="#0C3A30"/>
<path d="M43.5358 126.261C43.1547 126.077 42.8336 125.788 42.6098 125.429C42.386 125.07 42.2687 124.654 42.2715 124.231L42.2251 115.384C42.2272 115.09 42.2871 114.8 42.4015 114.53C42.5158 114.26 42.6822 114.015 42.8912 113.81C43.1003 113.604 43.3478 113.441 43.6197 113.331C43.8917 113.221 44.1826 113.166 44.4759 113.168L62.3478 114.744C62.8209 114.746 63.4181 115.479 63.8982 116.067C64.0488 116.252 64.1789 116.411 64.274 116.508C64.3156 116.55 64.3553 116.594 64.393 116.639C64.7344 117.046 64.9194 117.561 64.9146 118.092L64.8755 122.797C64.8698 123.389 64.6297 123.954 64.2077 124.369C63.7857 124.784 63.2164 125.014 62.6245 125.01L44.4992 126.481C44.1657 126.48 43.8367 126.405 43.5358 126.261Z" fill="#2F2E41"/>
<path d="M54.7133 193H50.0064C49.4145 192.999 48.8471 192.764 48.4286 192.346C48.0101 191.927 47.7747 191.36 47.774 190.768V150.911C47.7747 150.319 48.0101 149.752 48.4286 149.334C48.8471 148.915 49.4145 148.68 50.0064 148.679H54.7133C55.3051 148.68 55.8725 148.915 56.2911 149.334C56.7096 149.752 56.945 150.319 56.9456 150.911V190.768C56.945 191.36 56.7096 191.927 56.2911 192.346C55.8725 192.764 55.3051 192.999 54.7133 193Z" fill="#0C3A30"/>
<path d="M67.1288 193H62.4219C61.8301 192.999 61.2626 192.764 60.8441 192.346C60.4256 191.927 60.1902 191.36 60.1896 190.768V150.911C60.1902 150.319 60.4256 149.752 60.8441 149.334C61.2626 148.915 61.8301 148.68 62.4219 148.679H67.1288C67.7207 148.68 68.2881 148.915 68.7066 149.334C69.1251 149.752 69.3605 150.319 69.3612 150.911V190.768C69.3605 191.36 69.1251 191.927 68.7066 192.346C68.2881 192.764 67.7207 192.999 67.1288 193Z" fill="#0C3A30"/>
<path d="M60.3124 90.9733L60.3302 90.3357C59.1436 90.3027 58.0975 90.2282 57.3114 89.6541C57.0886 89.4821 56.9054 89.2641 56.7744 89.015C56.6433 88.7658 56.5675 88.4914 56.552 88.2104C56.5382 88.0387 56.5642 87.866 56.628 87.706C56.6917 87.5459 56.7916 87.4027 56.9197 87.2875C57.4415 86.847 58.2811 86.9896 58.8931 87.2701L59.4208 87.512L58.4088 80.1184L57.7769 80.2049L58.6377 86.4942C58.2853 86.3635 57.9059 86.3231 57.5339 86.3766C57.1619 86.4301 56.8092 86.5759 56.508 86.8006C56.3054 86.9774 56.1464 87.1987 56.0434 87.4472C55.9405 87.6956 55.8965 87.9645 55.9147 88.2328C55.9333 88.6104 56.0343 88.9794 56.2106 89.3139C56.3869 89.6483 56.6342 89.9402 56.9352 90.1691C57.9452 90.907 59.2578 90.9437 60.3124 90.9733Z" fill="#2F2E41"/>
<path d="M54.6518 80.7473H51.2167V81.3849H54.6518V80.7473Z" fill="#2F2E41"/>
<path d="M65.4947 80.7473H62.0596V81.3849H65.4947V80.7473Z" fill="#2F2E41"/>
<path d="M77.4854 141.474L61.7319 110.068H61.9541C62.5037 110.068 63.0306 109.849 63.4192 109.461C63.8078 109.072 64.0264 108.545 64.027 107.996V107.358C64.0264 106.809 63.8078 106.282 63.4192 105.894C63.0306 105.505 62.5037 105.286 61.9541 105.286H54.9381C54.3885 105.286 53.8616 105.505 53.473 105.894C53.0844 106.282 52.8658 106.809 52.8652 107.358V107.996C52.8668 108.503 53.0545 108.991 53.3927 109.369C53.731 109.747 54.1961 109.987 54.6999 110.044L38.9011 141.491C38.1497 142.987 37.7936 144.65 37.8666 146.322C37.9396 147.994 38.4392 149.619 39.318 151.044C40.1969 152.468 41.4256 153.644 42.8874 154.46C44.3492 155.276 45.9954 155.704 47.6694 155.704H68.7004C70.3766 155.704 72.0249 155.275 73.4887 154.459C74.9525 153.642 76.1831 152.465 77.0635 151.039C77.9439 149.613 78.4448 147.986 78.5186 146.311C78.5925 144.637 78.2368 142.972 77.4854 141.474Z" fill="#2F2E41"/>
<path d="M58.7776 117.176L94.3127 100.559C94.849 100.309 95.4627 100.282 96.0192 100.484C96.5756 100.685 97.0292 101.099 97.2805 101.635L99.2747 105.897C99.5249 106.434 99.5521 107.047 99.3503 107.604C99.1486 108.16 98.7343 108.613 98.1985 108.865L62.6634 125.481C62.1271 125.732 61.5133 125.759 60.9569 125.557C60.4005 125.355 59.9469 124.941 59.6956 124.406L57.7014 120.143C57.5766 119.878 57.5056 119.591 57.4926 119.298C57.4796 119.005 57.5249 118.712 57.6258 118.437C57.7046 118.219 57.8168 118.014 57.9584 117.83C58.1753 117.55 58.4562 117.326 58.7776 117.176Z" fill="#0C3A30"/>
<path d="M57.5591 117.074L73.2038 107.751C73.7371 107.495 74.3502 107.461 74.9085 107.656C75.4668 107.852 75.9248 108.26 76.1822 108.793L80.1275 116.717C80.2551 116.982 80.329 117.27 80.345 117.564C80.361 117.857 80.3187 118.151 80.2205 118.429C80.1224 118.706 79.9704 118.961 79.7732 119.179C79.5761 119.398 79.3377 119.575 79.0718 119.701L62.3594 126.155C61.9217 126.365 61.0626 125.971 60.3722 125.655C60.1558 125.556 59.9688 125.47 59.841 125.425C59.7848 125.406 59.7298 125.384 59.6762 125.36C59.1905 125.146 58.7973 124.765 58.5675 124.286L56.5274 120.046C56.3479 119.672 56.2758 119.255 56.3192 118.843C56.3626 118.43 56.5197 118.038 56.7731 117.71C56.9818 117.439 57.251 117.221 57.5591 117.074Z" fill="#2F2E41"/>
<path d="M44.5599 75.7743C44.3316 75.7735 44.1128 75.6825 43.9514 75.521C43.79 75.3596 43.6991 75.1408 43.6985 74.9125C43.6975 74.8447 43.7051 74.777 43.7212 74.7111L48.1823 55.0665C48.216 54.9185 48.2881 54.7821 48.3912 54.6707C48.4943 54.5593 48.6249 54.477 48.7698 54.4319C48.9148 54.3869 49.069 54.3806 49.2171 54.4139C49.3652 54.4471 49.502 54.5186 49.6137 54.6213L64.4035 68.3133C64.5147 68.4164 64.5969 68.547 64.6419 68.6919C64.6868 68.8367 64.693 68.9909 64.6597 69.1388C64.6264 69.2868 64.5548 69.4235 64.4521 69.5352C64.3495 69.6468 64.2193 69.7296 64.0746 69.7752L44.8193 75.7354C44.7352 75.7611 44.6478 75.7742 44.5599 75.7743Z" fill="#3F3D56"/>
<path d="M56.6568 61.4134L47.3668 59.5652L47.5129 58.9202L55.726 60.5526L56.6568 61.4134Z" fill="white"/>
<path d="M63.9719 68.1881L46.2097 64.6546L46.3559 64.0064L63.0407 67.3236L63.9719 68.1881Z" fill="white"/>
<path d="M57.6176 71.5654L56.2843 71.9774L45.0559 69.7436L45.2021 69.0954L57.6176 71.5654Z" fill="white"/>
<path d="M100.926 76.0746C102.474 76.0746 103.73 74.8198 103.73 73.2718C103.73 71.7239 102.474 70.4691 100.926 70.4691C99.3777 70.4691 98.1225 71.7239 98.1225 73.2718C98.1225 74.8198 99.3777 76.0746 100.926 76.0746Z" fill="#0C3A30"/>
<path d="M64.881 4.00393C65.987 4.00393 66.8835 3.10762 66.8835 2.00196C66.8835 0.896309 65.987 0 64.881 0C63.7751 0 62.8785 0.896309 62.8785 2.00196C62.8785 3.10762 63.7751 4.00393 64.881 4.00393Z" fill="#FF6584"/>
<path d="M21.2265 66.0648C22.3325 66.0648 23.229 65.1685 23.229 64.0628C23.229 62.9572 22.3325 62.0609 21.2265 62.0609C20.1206 62.0609 19.224 62.9572 19.224 64.0628C19.224 65.1685 20.1206 66.0648 21.2265 66.0648Z" fill="#FF6584"/>
<path d="M91.314 59.2581C92.42 59.2581 93.3165 58.3618 93.3165 57.2561C93.3165 56.1505 92.42 55.2542 91.314 55.2542C90.2081 55.2542 89.3115 56.1505 89.3115 57.2561C89.3115 58.3618 90.2081 59.2581 91.314 59.2581Z" fill="#0C3A30"/>
<path d="M30.438 86.4848C31.544 86.4848 32.4405 85.5885 32.4405 84.4828C32.4405 83.3772 31.544 82.4809 30.438 82.4809C29.3321 82.4809 28.4355 83.3772 28.4355 84.4828C28.4355 85.5885 29.3321 86.4848 30.438 86.4848Z" fill="#0C3A30"/>
<path d="M93.717 92.0903C94.823 92.0903 95.7195 91.194 95.7195 90.0883C95.7195 88.9827 94.823 88.0864 93.717 88.0864C92.6111 88.0864 91.7145 88.9827 91.7145 90.0883C91.7145 91.194 92.6111 92.0903 93.717 92.0903Z" fill="#E6E6E6"/>
<path d="M76.095 20.8204C77.201 20.8204 78.0975 19.9241 78.0975 18.8184C78.0975 17.7128 77.201 16.8165 76.095 16.8165C74.9891 16.8165 74.0925 17.7128 74.0925 18.8184C74.0925 19.9241 74.9891 20.8204 76.095 20.8204Z" fill="#CCCCCC"/>
<path d="M0.407208 42.8327C2.50403 42.9647 4.5397 43.5917 6.34735 44.6622C8.15501 45.7326 9.68318 47.2161 10.8066 48.991C11.1214 49.4942 11.5324 50.0471 11.3145 50.6665C11.2386 50.904 11.0843 51.1087 10.8769 51.2471C10.6695 51.3856 10.4213 51.4496 10.1728 51.4288C9.86296 51.3621 9.58368 51.1954 9.37802 50.9543C9.17236 50.7132 9.05176 50.4112 9.0348 50.0948C9.01785 49.7784 9.10548 49.4652 9.2842 49.2035C9.46292 48.9419 9.72278 48.7463 10.0237 48.6469C11.478 48.0267 12.9452 48.9851 14.1298 49.75C16.829 51.4929 19.7979 53.0692 23.0686 53.2678C26.0947 53.4516 29.3398 52.2654 31.023 49.6418C31.3175 49.1828 30.5863 48.7587 30.2933 49.2154C28.624 51.8173 25.2493 52.7518 22.3151 52.3496C20.5666 52.0738 18.8782 51.5007 17.323 50.6552C16.5165 50.2368 15.7344 49.773 14.968 49.2854C14.2387 48.7766 13.4657 48.3336 12.6581 47.9616C11.3112 47.4084 9.52818 47.4516 8.58736 48.7251C7.70964 49.9132 8.38796 51.8912 9.856 52.2252C10.178 52.2887 10.5108 52.2713 10.8245 52.1746C11.1381 52.0778 11.4228 51.9048 11.6531 51.671C11.8834 51.4371 12.0521 51.1498 12.144 50.8348C12.2359 50.5198 12.2482 50.1869 12.1797 49.866C12.0333 49.1663 11.5063 48.4816 11.0984 47.9098C9.87281 46.1861 8.27606 44.7593 6.42577 43.7345C4.57548 42.7096 2.51878 42.1127 0.407159 41.9878C-0.136428 41.961 -0.13501 42.8058 0.407159 42.8327L0.407208 42.8327Z" fill="#CCCCCC"/>
<path d="M118.84 68.4061C117.435 67.5018 116.264 66.2775 115.424 64.8336C114.583 63.3897 114.097 61.7672 114.005 60.0991C113.982 59.6277 113.911 59.0844 114.302 58.7387C114.447 58.6032 114.633 58.5208 114.831 58.505C115.029 58.4892 115.226 58.541 115.391 58.6517C115.58 58.8181 115.709 59.0421 115.759 59.2893C115.808 59.5364 115.775 59.7929 115.664 60.0192C115.553 60.2455 115.37 60.429 115.145 60.5415C114.919 60.654 114.663 60.6891 114.415 60.6416C113.165 60.5087 112.518 59.2745 111.992 58.2842C110.793 56.0277 109.342 53.7826 107.148 52.3771C105.117 51.0768 102.404 50.6431 100.217 51.8129C99.8349 52.0175 100.178 52.5954 100.559 52.3918C102.727 51.2317 105.433 51.8904 107.315 53.3068C108.422 54.176 109.373 55.2283 110.125 56.4181C110.523 57.0212 110.886 57.6465 111.229 58.2821C111.538 58.918 111.904 59.5252 112.32 60.0966C113.041 61.0027 114.296 61.6636 115.443 61.1438C115.699 61.0115 115.92 60.8213 116.089 60.5884C116.258 60.3554 116.37 60.0862 116.416 59.8022C116.463 59.5182 116.442 59.2274 116.355 58.9529C116.269 58.6784 116.12 58.4278 115.919 58.2214C115.72 58.0525 115.483 57.9356 115.227 57.8813C114.972 57.8269 114.707 57.8367 114.456 57.9099C114.206 57.983 113.977 58.1172 113.791 58.3003C113.605 58.4835 113.468 58.7099 113.391 58.9594C113.273 59.5458 113.27 60.1496 113.383 60.737C113.566 62.409 114.122 64.0187 115.01 65.4475C115.897 66.8763 117.094 68.0878 118.512 68.9928C118.879 69.2222 119.206 68.6348 118.84 68.4061L118.84 68.4061Z" fill="#CCCCCC"/>
<path d="M49.7387 12.975C48.071 12.8699 46.4519 12.3713 45.0142 11.5199C43.5765 10.6685 42.361 9.48861 41.4675 8.07693C41.2171 7.67674 40.8902 7.23695 41.0636 6.74436C41.124 6.55549 41.2467 6.39268 41.4116 6.28255C41.5765 6.17242 41.774 6.12149 41.9716 6.13807C42.218 6.19111 42.4402 6.32372 42.6037 6.51546C42.7673 6.7072 42.8632 6.94742 42.8767 7.19907C42.8902 7.45071 42.8205 7.6998 42.6784 7.90792C42.5362 8.11603 42.3295 8.27161 42.0902 8.35067C40.9335 8.84392 39.7666 8.08163 38.8244 7.47326C36.6776 6.08703 34.3163 4.83339 31.715 4.67541C29.3081 4.52926 26.7272 5.47271 25.3884 7.55933C25.1542 7.92439 25.7358 8.26173 25.9688 7.89846C27.2965 5.82905 29.9805 5.08581 32.3142 5.40566C33.7049 5.62507 35.0478 6.08086 36.2847 6.7533C36.9261 7.0861 37.5482 7.45502 38.1577 7.84283C38.7378 8.24743 39.3526 8.59978 39.9949 8.89571C41.0662 9.33564 42.4843 9.30128 43.2326 8.28839C43.3913 8.04837 43.4916 7.77456 43.5256 7.48883C43.5595 7.20311 43.5261 6.91341 43.4281 6.64289C43.33 6.37238 43.17 6.12854 42.9609 5.93089C42.7517 5.73324 42.4992 5.58725 42.2236 5.50459C41.9674 5.45411 41.7027 5.46797 41.4533 5.54491C41.2038 5.62184 40.9774 5.75947 40.7942 5.94544C40.611 6.13141 40.4769 6.35991 40.4038 6.61046C40.3307 6.86102 40.3209 7.12579 40.3754 7.38104C40.5582 7.95062 40.8503 8.4791 41.2354 8.9369C42.2102 10.3078 43.4802 11.4426 44.9518 12.2577C46.4234 13.0729 48.0592 13.5476 49.7387 13.6469C50.171 13.6683 50.1699 12.9963 49.7387 12.975L49.7387 12.975Z" fill="#CCCCCC"/>
<path d="M51.264 34.2622H49.2615V40.84H51.264V34.2622Z" fill="#CCCCCC"/>
<path d="M18.8863 29.6717L20.278 28.2804L15.7053 23.709L14.3136 25.1003L18.8863 29.6717Z" fill="#B3B3B3"/>
<path d="M75.1897 43.4954L76.5814 44.8867L81.1541 40.3152L79.7624 38.9239L75.1897 43.4954Z" fill="#B3B3B3"/>
<path d="M18.3186 100.351L19.7103 101.742L24.283 97.1709L22.8913 95.7796L18.3186 100.351Z" fill="#FF6584"/>
</g>
<defs>
<clipPath id="clip0_2_117">
<rect width="119" height="193" fill="white"/>
</clipPath>
</defs>
</svg>
